<?xml version="1.0" encoding="UTF-8"?>
<svg xmlns="http://www.w3.org/2000/svg" viewBox="0 0 1464.94 400.68"><defs><style>.d{fill:#fff;}.e,.f{fill:#73ef37;}.f{fill-rule:evenodd;}</style></defs><g id="a"/><g id="b"><g id="c"><g><path class="f" d="M375.62,170.2c-13.81-58.63,70.3-22.8,10.56-93.25-59.74-70.45-43.23,17.42-98.94-11.04C231.52,37.45,312.14,0,216.33,0s-15.04,42.78-70.87,65.91c-55.83,23.13-39.11-59.44-98.97,11.04-59.86,70.48,24.37,36.1,10.59,93.25-13.78,57.16-73.85-8.21-52.55,79.66,21.3,87.87,45.42,2.02,84.23,50.36,38.81,48.34-52.82,49.21,33.48,88.32,86.31,39.11,32.1-33.39,94.1-30.56,62,2.83,7.94,69.55,94.25,30.44,86.31-39.11-5.17-43.68,33.48-88.32,38.66-44.64,62.78,37.54,84.08-50.36,21.3-87.9-38.75-20.91-52.52-79.54Zm-138.38,164.94c-56.46,0-102.28-45.12-102.28-100.59s45.75-100.59,102.28-100.59,102.28,45.12,102.28,100.59-45.91,100.59-102.4,100.59h.12Z"/><path class="d" d="M513.02,160.4c9.51-5.84,28.88-10.77,50.39-10.77,43.05,0,63.17,19.67,63.17,59.02v99.6h-36.37v-18.77c-4.9,9.24-16.58,20-40.55,20-30.44,0-48.28-20-48.28-45.51,0-29.18,22.14-47.32,64.56-47.32h22.74v-9.54c0-16.3-7.07-26.44-29.81-26.44-16.27,.26-32.15,5.06-45.85,13.84v-34.11Zm56.55,80.83c-20.31,0-29.81,9.54-29.81,21.06s7.37,19.67,22.74,19.67c16.58,0,26.11-10.74,26.11-26.11v-14.62h-19.04Z"/><path class="d" d="M666.44,86.97c12.31-.08,22.36,9.83,22.44,22.14,.08,12.31-9.83,22.36-22.14,22.44-12.31,.08-22.36-9.83-22.44-22.14,0-.1,0-.2,0-.3-.05-12.18,9.78-22.09,21.96-22.14,.06,0,.12,0,.18,0Zm-18.35,65.43h36.88v155.86h-36.88V152.4Z"/><path class="d" d="M743.42,180.07c6.47-17.21,19.67-28.91,39.35-28.91,3.51-.13,7.03,.19,10.47,.93v35.65c-4.95-2.14-10.31-3.16-15.7-3.01-20.58,0-34.11,18.74-34.11,43.05v80.53h-37.18l.3-156.43h36.88v28.19Z"/><path class="d" d="M926.2,299.65c-11.37,7.19-31.98,10.2-47.05,10.2-50.72,0-80.35-33.57-80.35-79.36,0-51.35,31.98-79.63,71.02-79.63s66.18,23.67,66.18,72.2c-.26,7.42-.98,14.81-2.17,22.14h-97.71c5.54,22.74,23.67,34.74,48.55,34.74,14.77,.36,29.29-3.91,41.51-12.21v31.92Zm-25.12-86.7c-.93-19.04-10.14-33.09-30.08-33.09-16.58,0-31.65,12.27-35.35,37.78h65.43v-4.69Z"/><path class="e" d="M957.31,86.97h18.74v221.28h-18.74V86.97Z"/><path class="e" d="M997.35,231.09c0-44.58,28.58-80.68,71.6-80.68,48.28,0,73.16,36.1,73.16,80.83s-26.41,79.93-73.16,79.93c-44.85-.15-71.6-35.5-71.6-80.08Zm19.64,0c0,32.88,20,62.09,51.95,62.09,35.68,0,53.49-29.21,53.49-62.09s-15.04-63.02-53.49-63.02c-33.81,0-51.95,30.14-51.95,63.02Z"/><path class="e" d="M1289.35,151.73v139.76c0,49.49-30.44,70.69-68.26,70.69-15.04,0-32.58-2.77-45.48-9.02v-18.44c13.78,6.34,28.78,9.6,43.95,9.54,29.21,0,51.14-14.77,51.14-52.88v-15.4c-9.51,17.21-25.21,28.58-46.72,28.58-34.11,0-64.86-26.44-64.86-74.06s24.61-80.53,63.02-80.53c24.28,0,39.65,12.27,48.55,29.81v-28.04h18.65Zm-18.77,79.36c0-47.02-25.51-63.17-44.88-63.17-29.48,0-47.02,25.81-47.02,61.79,0,40.88,26.14,57.16,45.48,57.16s46.42-13.96,46.42-55.77h0Z"/><path class="e" d="M1319.8,96.26c7.24-.07,13.17,5.75,13.24,12.99,0,.07,0,.14,0,.21,.02,7.11-5.73,12.89-12.84,12.91-.13,0-.26,0-.4,0-6.96,.17-12.74-5.34-12.91-12.3,0-.2,0-.41,0-.61-.2-7.09,5.39-13,12.48-13.2,.14,0,.28,0,.43,0Zm-9.21,55.53h18.74v156.43h-18.74V151.79Z"/><path class="e" d="M1433,293.81c11.38-.13,22.47-3.54,31.95-9.84v19.04c-7.67,5.23-22.74,9.02-34.11,9.02-52.85,0-80.23-39.35-80.23-81.22s28.28-81.22,80.23-81.22c11.86,.06,23.55,2.9,34.11,8.3v19.07c-9.77-5.8-20.88-8.99-32.25-9.24-39.65,0-62.42,30.44-62.42,63.17s20.31,62.9,62.72,62.9Z"/></g></g></g></svg>